<?xml version="1.0" encoding="iso-8859-1"?>
<!-- Generator: Adobe Illustrator 19.0.0, SVG Export Plug-In . SVG Version: 6.00 Build 0)  -->
<svg version="1.1" id="Capa_1" xmlns="http://www.w3.org/2000/svg" xmlns:xlink="http://www.w3.org/1999/xlink" x="0px" y="0px"
	 viewBox="0 0 463 463" style="enable-background:new 0 0 463 463;" xml:space="preserve">
<g>
	<path d="M36.403,166.737c4.142,0,7.5-3.358,7.5-7.5v-57.527h57.532c4.142,0,7.5-3.358,7.5-7.5s-3.358-7.5-7.5-7.5H36.403
		c-4.142,0-7.5,3.358-7.5,7.5v65.027C28.903,163.379,32.261,166.737,36.403,166.737z"/>
	<path d="M426.596,86.709h-65.032c-4.142,0-7.5,3.358-7.5,7.5s3.358,7.5,7.5,7.5h57.532v57.527c0,4.142,3.358,7.5,7.5,7.5
		s7.5-3.358,7.5-7.5V94.209C434.096,90.067,430.738,86.709,426.596,86.709z"/>
	<path d="M426.596,296.258c-4.142,0-7.5,3.358-7.5,7.5v57.527h-57.532c-4.142,0-7.5,3.358-7.5,7.5s3.358,7.5,7.5,7.5h65.032
		c4.142,0,7.5-3.358,7.5-7.5v-65.027C434.096,299.616,430.738,296.258,426.596,296.258z"/>
	<path d="M101.435,361.285H43.903v-57.527c0-4.142-3.358-7.5-7.5-7.5s-7.5,3.358-7.5,7.5v65.027c0,4.142,3.358,7.5,7.5,7.5h65.032
		c4.142,0,7.5-3.358,7.5-7.5S105.577,361.285,101.435,361.285z"/>
</g>
<g>
</g>
<g>
</g>
<g>
</g>
<g>
</g>
<g>
</g>
<g>
</g>
<g>
</g>
<g>
</g>
<g>
</g>
<g>
</g>
<g>
</g>
<g>
</g>
<g>
</g>
<g>
</g>
<g>
</g>
</svg>
